<?xml version="1.0" encoding="UTF-8"?>
<svg id="Capa_1" data-name="Capa 1" xmlns="http://www.w3.org/2000/svg" viewBox="0 0 15.34 15.7">
  <defs>
    <style>
      .cls-1 {
        fill: none;
      }

      .cls-2 {
        fill: #39a24e;
      }

      .cls-2, .cls-3, .cls-4, .cls-5 {
        fill-rule: evenodd;
      }

      .cls-3, .cls-6 {
        fill: #9f6739;
      }

      .cls-4, .cls-7 {
        fill: #e9531b;
      }

      .cls-5 {
        fill: #2c345e;
      }
    </style>
  </defs>
  <path class="cls-2" d="M.38,5.91c1.04.96.82,2.29.46,2.65-1.23-.6-.61-1.91-.46-2.65"/>
  <path class="cls-2" d="M1.41,9.56c-.27-.65-.65-.9-1.08-.96,1.02,1.37-.21,2.11,1.4,2.68-.02-.22-.16-.51-.06-.67,1.06.07.78-1.18.08-1.75l-.33.7Z"/>
  <path class="cls-2" d="M2.12,10.68c.51.02.89.16.84.66-.81.5-.68-.38-.84-.66"/>
  <path class="cls-2" d="M1.76,6.77c.55.86.39,1.65-.25,2.21-.84-1.58.16-1.51.25-2.21"/>
  <path class="cls-2" d="M3.37,4.17c-.47.3-.84.61-1,.96.16.38,0,.91-.11,1.16-.2.19-.45.36-.75.27-.03-1.93.8-2.37,1.87-2.39"/>
  <path class="cls-2" d="M1.42,3.49c-.14.91-1.31,1.5-.41,2.74.49-.42.65-1.3.41-2.74"/>
  <path class="cls-2" d="M3.03,3.49c.03.39-.24.63-.65.78.11-.31,0-.9.65-.78"/>
  <path class="cls-2" d="M1.94,2.91c.58.77.1,1.34-.1,1.59-.06-.59-.35-1.27.1-1.59"/>
  <path class="cls-2" d="M6.59.32c-.77.49-1.86-.17-2.2,1.32.63.1,1.28-.21,2.2-1.32"/>
  <path class="cls-2" d="M6.52,1.41c-.37.46-.85,1.15-1.7.82.47-.97,1.09-.62,1.7-.82"/>
  <path class="cls-2" d="M4.72,1.79c-.4-.11-.85,0-1.23.51.58.95.95.21,1.23-.51"/>
  <path class="cls-2" d="M5.05,2.6c-.13.33-.21.71-.77.85.01-.46-.09-1.25.77-.85"/>
  <path class="cls-2" d="M11.26,1.54c.04-.98-2.2-.42-2.32-1.32-.24,1.55,1.48.97,2.32,1.32"/>
  <path class="cls-2" d="M10.85,2.47c-.59-1.03-1.29-1.11-2.03-.97.69.45.68,1.14,2.03.97"/>
  <path class="cls-2" d="M10.75,1.74c.45-.03.87.05,1.2.39-.29.45-.59.63-.87,1.34-.38-.05-.54-.34-.49-.86l.47.05c-.1-.31.08-.48-.31-.92"/>
  <path class="cls-2" d="M6.75,14.25c-.43.1-.45-.98-2.13.5.81-.3,1.95.42,2.13-.5"/>
  <path class="cls-2" d="M5.44,13.81c-.31-.39-.86-.59-1.78-.48.45.91,1.08.81,1.78.48"/>
  <path class="cls-2" d="M4.13,12.37c1.07-.24,1.02.41,1.37.84-.83.02-1.33-.22-1.37-.84"/>
  <path class="cls-2" d="M6.81,13.57c-.32-.71-.82-.13-1.23-.2.52.6.91.6,1.23.2"/>
  <path class="cls-2" d="M4.27,13.14c-.39-.17-.56-.78-1.17-.51.02.48.36.69,1.17.51"/>
  <path class="cls-3" d="M7.62,0c.53,0,.96.44.96.97s-.43.97-.96.97-.96-.44-.96-.97.43-.97.96-.97Z"/>
  <path class="cls-1" d="M7.62,0c.53,0,.96.44.96.97s-.43.97-.96.97-.96-.44-.96-.97.43-.97.96-.97Z"/>
  <polygon class="cls-3" points="4.23 3.67 3.88 4.04 1.36 2.14 .46 .81 1.06 .16 2.36 1.08 4.23 3.67"/>
  <polygon class="cls-1" points="4.23 3.67 3.88 4.04 1.36 2.14 .46 .81 1.06 .16 2.36 1.08 4.23 3.67"/>
  <path class="cls-3" d="M6.98,12.86h1.14v2.48c0,.19-.14.35-.31.35h-.51c-.17,0-.31-.16-.31-.35v-2.48Z"/>
  <path class="cls-1" d="M6.98,12.86h1.14v2.48c0,.19-.14.35-.31.35h-.51c-.17,0-.31-.16-.31-.35v-2.48Z"/>
  <path class="cls-3" d="M1.57,11.72l-.45-.45c-.61.67-.77,1.15-.39,1.64l1.27,1.34c.6.63,1.32.22,1.83-.21l-.46-.47c-.4.36-.64.56-1.09.16l-.96-1c-.29-.39-.1-.71.24-1Z"/>
  <path class="cls-1" d="M1.57,11.72l-.45-.45c-.61.67-.77,1.15-.39,1.64l1.27,1.34c.6.63,1.32.22,1.83-.21l-.46-.47c-.4.36-.64.56-1.09.16l-.96-1c-.29-.39-.1-.71.24-1Z"/>
  <path class="cls-3" d="M1.91,11.89c.12,0,.21.09.21.21s-.09.21-.21.21-.21-.09-.21-.21.09-.21.21-.21Z"/>
  <path class="cls-1" d="M1.91,11.89c.12,0,.21.09.21.21s-.09.21-.21.21-.21-.09-.21-.21.09-.21.21-.21Z"/>
  <path class="cls-3" d="M2.98,13.02c.12,0,.21.09.21.21s-.09.21-.21.21-.21-.09-.21-.21.09-.21.21-.21Z"/>
  <path class="cls-1" d="M2.98,13.02c.12,0,.21.09.21.21s-.09.21-.21.21-.21-.09-.21-.21.09-.21.21-.21Z"/>
  <path class="cls-3" d="M4.24,11.42l-.52-.54L.09,14.5c-.1.1-.12.25-.04.33l.23.24c.08.08.22.07.32-.03l3.63-3.61Z"/>
  <path class="cls-1" d="M4.24,11.42l-.52-.54L.09,14.5c-.1.1-.12.25-.04.33l.23.24c.08.08.22.07.32-.03l3.63-3.61Z"/>
  <path class="cls-3" d="M13.75,11.74l.45-.45c.61.67.77,1.15.39,1.64l-1.27,1.34c-.6.63-1.32.22-1.83-.21l.46-.47c.4.36.64.56,1.09.16l.96-1c.29-.39.1-.71-.24-1Z"/>
  <path class="cls-1" d="M13.75,11.74l.45-.45c.61.67.77,1.15.39,1.64l-1.27,1.34c-.6.63-1.32.22-1.83-.21l.46-.47c.4.36.64.56,1.09.16l.96-1c.29-.39.1-.71-.24-1Z"/>
  <path class="cls-3" d="M13.41,11.91c-.12,0-.21.09-.21.21s.09.21.21.21.21-.09.21-.21-.09-.21-.21-.21Z"/>
  <path class="cls-1" d="M13.41,11.91c-.12,0-.21.09-.21.21s.09.21.21.21.21-.09.21-.21-.09-.21-.21-.21Z"/>
  <circle class="cls-6" cx="12.35" cy="13.26" r=".21"/>
  <circle class="cls-1" cx="12.35" cy="13.26" r=".21"/>
  <path class="cls-3" d="M11.09,11.44l.52-.54,3.63,3.61c.1.1.12.25.04.33l-.23.24c-.08.08-.22.07-.32-.03l-3.63-3.61Z"/>
  <path class="cls-1" d="M11.09,11.44l.52-.54,3.63,3.61c.1.1.12.25.04.33l-.23.24c-.08.08-.22.07-.32-.03l-3.63-3.61Z"/>
  <path class="cls-2" d="M10.09,14.31c-.55-.34-1.43-.51-1.73-.03.26.97,1.06.24,1.73.03"/>
  <path class="cls-2" d="M9.72,13.32c-.43,0-1.03-.15-1.37.15.36.69.98.18,1.37-.15"/>
  <path class="cls-2" d="M11.58,13.41c-.45.32-.73,1.37-1.89.33.6-.62,1.28-.33,1.89-.33Z"/>
  <path class="cls-1" d="M11.58,13.41c-.45.32-.73,1.37-1.89.33.6-.62,1.28-.33,1.89-.33Z"/>
  <path class="cls-2" d="M11.28,12.46c-.41.34-.78,1.28-1.41.77.09-.89.86-.59,1.41-.77"/>
  <path class="cls-2" d="M12.16,12.71c-.76-.24-.84.28-1.26.46.65.13,1.22.03,1.26-.46"/>
  <polygon class="cls-5" points="9.52 2.64 10.94 4.06 12.36 5.47 12.38 7.49 12.39 9.51 10.99 10.95 9.59 12.39 7.6 12.4 5.6 12.42 4.18 11 2.76 9.58 2.75 7.57 2.73 5.55 4.13 4.11 5.53 2.67 7.53 2.65 9.52 2.64"/>
  <polygon class="cls-1" points="9.52 2.64 10.94 4.06 12.36 5.47 12.38 7.49 12.39 9.51 10.99 10.95 9.59 12.39 7.6 12.4 5.6 12.42 4.18 11 2.76 9.58 2.75 7.57 2.73 5.55 4.13 4.11 5.53 2.67 7.53 2.65 9.52 2.64"/>
  <polygon class="cls-4" points="3.38 4.79 4.86 3.29 7.56 6.03 10.27 3.29 11.74 4.79 9.04 7.53 11.74 10.27 10.27 11.76 7.56 9.03 4.86 11.76 3.38 10.27 6.08 7.53 3.38 4.79"/>
  <polygon class="cls-1" points="3.38 4.79 4.86 3.29 7.56 6.03 10.27 3.29 11.74 4.79 9.04 7.53 11.74 10.27 10.27 11.76 7.56 9.03 4.86 11.76 3.38 10.27 6.08 7.53 3.38 4.79"/>
  <path class="cls-7" d="M6.93,4.2l.43-.03c0,.07.03.13.06.16.05.06.11.09.2.09.07,0,.12-.02.15-.05.04-.03.05-.07.05-.11,0-.04-.02-.07-.05-.1-.03-.03-.11-.06-.23-.09-.2-.05-.34-.11-.43-.18-.09-.08-.13-.17-.13-.29,0-.08.02-.15.07-.22.04-.07.11-.12.2-.16.09-.04.21-.06.36-.06.19,0,.33.04.43.11.1.07.16.18.18.34l-.43.03c-.01-.07-.04-.12-.07-.15-.04-.03-.09-.05-.15-.05-.05,0-.09.01-.12.03-.03.02-.04.05-.04.08,0,.02.01.04.03.06.02.02.07.04.15.06.2.04.34.09.43.13.09.04.15.1.19.17.04.07.06.14.06.22,0,.1-.03.18-.08.27-.05.08-.13.14-.22.18-.09.04-.21.06-.36.06-.25,0-.43-.05-.52-.15-.1-.1-.15-.22-.16-.37"/>
  <polygon class="cls-7" points="6.92 10.23 7.34 10.23 7.9 11.05 7.9 10.23 8.33 10.23 8.33 11.72 7.9 11.72 7.35 10.9 7.35 11.72 6.92 11.72 6.92 10.23"/>
  <path class="cls-7" d="M4.29,7.65l.4.12c-.03.11-.07.21-.13.28-.06.08-.13.13-.22.17-.09.04-.19.06-.33.06-.16,0-.29-.02-.39-.07-.1-.05-.19-.13-.26-.25-.07-.12-.11-.27-.11-.46,0-.25.07-.44.2-.57.13-.13.31-.2.55-.2.19,0,.33.04.44.11.11.08.19.19.24.35l-.4.09s-.03-.08-.04-.1c-.03-.04-.06-.06-.09-.08-.04-.02-.08-.03-.12-.03-.1,0-.18.04-.24.13-.04.06-.06.16-.06.3,0,.17.03.28.07.34.05.06.12.09.21.09s.15-.02.2-.07c.04-.05.08-.12.1-.22"/>
  <path class="cls-2" d="M14.03,3.62c.41,1.29,1.2,2.3.31,2.69-.69-.46-.96-1.41-.31-2.69"/>
  <path class="cls-2" d="M12.58,4.4c1.68,1.17.81,1.47,1.22,2.2-.96.07-1.41-.84-1.22-2.2"/>
  <path class="cls-2" d="M12.28,3.5c1.05-.11.73.62.83.88-.47-.02-.8-.23-.83-.88"/>
  <path class="cls-2" d="M12.97,3.11c-.07.45.23.84.69,1.17.03-.4.14-1.02-.69-1.17"/>
  <path class="cls-2" d="M14.93,6.07v1.76c.25.46-.19.74-.77.61-.21.36-.52.25-.79.12-.35-.68-.14-1.3.6-1.85.04.25-.13.58.11.75.26-.62.56-.93.85-1.39"/>
  <path class="cls-2" d="M15.34,8.77c-.56.45-.4,1.02-.6,1.53-.29.32-.62.26-.89.67l-.27-.53c-.19.26-.32.13-.45.12-.29.34-.11.63-.14.94.09-.01.2-.04.26.07-.05.34-.15.31-.25.48-.19-.18-.32-.35-.18-.48-.24.02-.46-.15-.66-.51-.03-.33.22-.51.74-.54-.16-.83.17-1.38.85-1.72-.2.54-.02.57-.03.85.23-.53,1.02-.95,1.64-.89"/>
  <path class="cls-7" d="M11.03,7.38h.19s.06,0,.12-.02c.03,0,.06-.02.07-.05.02-.03.03-.05.03-.09,0-.05-.02-.09-.05-.11-.03-.03-.09-.04-.17-.04h-.2v.3ZM10.57,8.27v-1.5h.76c.14,0,.25.01.32.04.07.02.13.07.18.14.05.07.07.15.07.24,0,.08-.02.15-.05.22-.04.06-.08.11-.14.15-.04.02-.09.04-.16.06.05.02.09.04.12.06.02.01.04.04.07.08.03.04.05.07.06.09l.22.43h-.52l-.24-.46c-.03-.06-.06-.1-.08-.12-.03-.02-.07-.03-.11-.03h-.04v.61h-.46Z"/>
  <polygon class="cls-3" points="11.12 3.71 11.47 4.09 13.99 2.18 14.89 .86 14.28 .2 12.98 1.12 11.12 3.71"/>
  <polygon class="cls-1" points="11.12 3.71 11.47 4.09 13.99 2.18 14.89 .86 14.28 .2 12.98 1.12 11.12 3.71"/>
</svg>